<?xml version="1.0" encoding="UTF-8" standalone="no"?>
<svg width="147px" height="24px" viewBox="0 0 147 24" version="1.1" xmlns="http://www.w3.org/2000/svg" xmlns:xlink="http://www.w3.org/1999/xlink" xmlns:sketch="http://www.bohemiancoding.com/sketch/ns">
    <!-- Generator: Sketch 3.5.1 (25234) - http://www.bohemiancoding.com/sketch -->
    <title>logo_white</title>
    <desc>Created with Sketch.</desc>
    <defs></defs>
    <g id="Assets" stroke="none" stroke-width="1" fill="none" fill-rule="evenodd" sketch:type="MSPage">
        <g id="Desktop" sketch:type="MSArtboardGroup" transform="translate(-219.000000, -30.000000)" fill="#FFFFFF">
            <g id="logo" sketch:type="MSLayerGroup" transform="translate(219.000000, 30.000000)">
                <path d="M103.280067,4.63421849 C103.53963,4.63421849 103.756437,4.41862185 103.756437,4.15502521 L103.756437,0.663529412 C103.756437,0.404168067 103.53963,0.188369748 103.280067,0.188369748 L91.4307227,0.188369748 C91.1683361,0.188369748 90.9541513,0.404168067 90.9541513,0.663529412 L90.9541513,4.15502521 C90.9541513,4.41862185 91.1683361,4.63421849 91.4307227,4.63421849 L94.5533445,4.63421849 C94.8155294,4.63421849 95.0287059,4.8469916 95.0287059,5.11321008 L95.0287059,23.4012101 C95.0287059,23.668437 95.2495462,23.8804034 95.5048739,23.8804034 L99.2038992,23.8804034 C99.4650756,23.8804034 99.6806723,23.668437 99.6806723,23.4012101 L99.6806723,5.11321008 C99.6806723,4.8469916 99.8966723,4.63421849 100.160067,4.63421849 L103.280067,4.63421849" id="Fill-1" sketch:type="MSShapeGroup"></path>
                <path d="M77.4790588,23.8773782 C77.7400336,23.8773782 77.9544202,23.663395 77.9544202,23.3981849 L77.9632941,0.670386555 C77.9632941,0.405378151 77.7450756,0.188369748 77.4812773,0.188369748 L74.0028908,0.188369748 C73.7364706,0.188369748 73.5238992,0.411630252 73.5238992,0.674218487 L73.5238992,10.7788235 C73.5238992,11.0414118 73.444437,11.0569412 73.348437,10.8088739 L69.1327059,0.642756303 C69.0389244,0.398722689 68.7452773,0.188369748 68.4790588,0.188369748 L65.1868235,0.188369748 C64.9254454,0.184537815 64.7098487,0.405378151 64.7098487,0.670386555 L64.7098487,23.4024202 C64.7098487,23.668437 64.9254454,23.8804034 65.1868235,23.8804034 L68.6611765,23.8804034 C68.9261849,23.8804034 69.1429916,23.668437 69.1429916,23.4024202 L69.1429916,12.7000336 C69.1429916,12.4348235 69.2157983,12.4245378 69.3053445,12.6689748 L73.6743529,23.4280336 C73.7618824,23.6736807 74.0549244,23.8773782 74.3161008,23.8773782 L77.4790588,23.8773782" id="Fill-3" sketch:type="MSShapeGroup"></path>
                <path d="M55.7221513,14.3027899 C55.7221513,14.0404034 55.7768067,13.9861513 56.0428235,13.9861513 L59.293916,13.9861513 C59.5548908,13.9861513 59.7718992,13.7584538 59.7718992,13.497479 L59.7718992,10.0804034 C59.7718992,9.82063866 59.5548908,9.60484034 59.293916,9.60484034 L56.0428235,9.60484034 C55.7768067,9.60484034 55.7221513,9.54776471 55.7221513,9.28134454 L55.7221513,4.94843697 C55.7221513,4.68383193 55.7768067,4.6382521 56.0428235,4.6382521 L61.6513613,4.6382521 C61.9137479,4.6382521 62.1303529,4.46036975 62.1303529,4.19778151 L62.1303529,0.666352941 C62.1303529,0.404168067 61.9137479,0.188369748 61.6513613,0.188369748 L51.5310252,0.188369748 C51.2686387,0.188369748 51.0542521,0.404168067 51.0542521,0.666352941 L51.0542521,23.4012101 C51.0542521,23.668437 51.2686387,23.8804034 51.5310252,23.8804034 L61.6513613,23.8804034 C61.9137479,23.8804034 62.1303529,23.668437 62.1303529,23.4012101 L62.1303529,19.8891429 C62.1303529,19.6229244 61.9137479,19.4071261 61.6513613,19.4071261 L56.0428235,19.4071261 C55.7768067,19.4071261 55.7221513,19.3524706 55.7221513,19.0862521 L55.7221513,14.3027899" id="Fill-5" sketch:type="MSShapeGroup"></path>
                <path d="M41.2362353,14.4703866 C41.2362353,14.2092101 41.3078319,14.2092101 41.3935462,14.453042 L44.9015798,23.4280336 C44.9862857,23.6736807 45.269042,23.8804034 45.5316303,23.8804034 L49.3331092,23.8804034 C49.5983193,23.8804034 49.7423193,23.6736807 49.6541849,23.4280336 L45.1524706,11.9828571 C45.0615126,11.7364034 45.0665546,11.3322353 45.1627563,11.0855798 L49.2046387,0.633882353 C49.3008403,0.388436975 49.1604706,0.188369748 48.8992941,0.188369748 L45.0964034,0.188369748 C44.8315966,0.188369748 44.5458151,0.388436975 44.4562689,0.636504202 L41.4038319,8.97095798 C41.3116639,9.21539496 41.2362353,9.20712605 41.2362353,8.94090756 L41.2362353,0.666352941 C41.2362353,0.404168067 41.0232605,0.188369748 40.757042,0.188369748 L37.2685714,0.188369748 C37.0061849,0.188369748 36.7903866,0.404168067 36.7903866,0.666352941 L36.7903866,23.4012101 C36.7903866,23.668437 37.0061849,23.8804034 37.2685714,23.8804034 L40.757042,23.8804034 C41.0232605,23.8804034 41.2362353,23.668437 41.2362353,23.4012101 L41.2362353,14.4703866" id="Fill-6" sketch:type="MSShapeGroup"></path>
                <path d="M136.152,14.4703866 C136.152,14.2092101 136.225815,14.2092101 136.306689,14.453042 L139.815529,23.4280336 C139.901647,23.6736807 140.184605,23.8804034 140.447193,23.8804034 L144.251294,23.8804034 C144.513681,23.8804034 144.658084,23.6736807 144.569546,23.4280336 L140.06763,11.9828571 C139.977882,11.7364034 139.984336,11.3322353 140.078319,11.0855798 L144.121412,0.633882353 C144.217412,0.388436975 144.078655,0.188369748 143.815059,0.188369748 L140.01479,0.188369748 C139.749378,0.188369748 139.461378,0.388436975 139.371429,0.636504202 L136.315563,8.97095798 C136.227429,9.21539496 136.152,9.20712605 136.152,8.94090756 L136.152,0.666352941 C136.152,0.404168067 135.939025,0.188369748 135.675227,0.188369748 L132.183933,0.188369748 C131.918723,0.188369748 131.70716,0.404168067 131.70716,0.666352941 L131.70716,23.4012101 C131.70716,23.668437 131.918723,23.8804034 132.183933,23.8804034 L135.675227,23.8804034 C135.939025,23.8804034 136.152,23.668437 136.152,23.4012101 L136.152,14.4703866" id="Fill-7" sketch:type="MSShapeGroup"></path>
                <path d="M19.0172773,0.666352941 C19.0172773,0.404168067 18.801479,0.188369748 18.5407059,0.188369748 L15.0506218,0.188369748 C14.7886387,0.188369748 14.5756639,0.404168067 14.5756639,0.666352941 L14.5756639,23.4012101 C14.5756639,23.663395 14.7886387,23.8804034 15.0506218,23.8804034 L18.5407059,23.8804034 C18.801479,23.8804034 19.0172773,23.663395 19.0172773,23.4012101 L19.0172773,0.666352941" id="Fill-8" sketch:type="MSShapeGroup"></path>
                <path d="M87.2383866,10.2554622 C85.8326723,8.84369748 84.3807731,7.73747899 84.3807731,6.42917647 C84.3807731,5.51878992 85.1132773,4.64067227 86.0432269,4.6382521 C86.2547899,4.63421849 87.9614118,4.6382521 88.6747563,4.6382521 L88.6846387,4.6382521 C88.9565042,4.6382521 89.169479,4.41862185 89.169479,4.15240336 L89.169479,0.682084034 L89.169479,0.670386555 C89.169479,0.404168067 88.9514622,0.188369748 88.6846387,0.188369748 L85.4083361,0.188369748 C81.7807059,0.188369748 79.7711597,2.71704202 79.8163361,6.28779832 C79.8352941,9.18151261 81.527395,11.1712941 83.8935126,13.368605 C85.2377143,14.5948235 86.3405042,15.614521 86.3405042,17.2640672 C86.3405042,18.6225882 85.5614118,19.3692101 84.2666218,19.4071261 L80.2914958,19.4071261 C80.0270924,19.4135798 79.8163361,19.6344202 79.8163361,19.8970084 L79.8163361,23.3943529 C79.8163361,23.663395 80.0311261,23.8804034 80.2971429,23.8804034 L85.525916,23.8773782 L85.536605,23.8773782 C89.4943866,23.9558319 90.949916,20.6293109 90.949916,17.2261513 C90.949916,13.9427899 89.2773782,12.3321681 87.2383866,10.2554622" id="Fill-9" sketch:type="MSShapeGroup"></path>
                <path d="M6.16820168,19.6616471 L4.77297479,19.6616471 C4.50554622,19.6616471 4.44705882,19.6033613 4.44705882,19.3381513 L4.44705882,14.3130756 C4.44705882,14.0428235 4.50554622,13.9861513 4.77297479,13.9861513 L6.16820168,13.9861513 C7.24618487,13.9861513 7.52692437,14.9288067 7.54628571,16.7213445 C7.57089076,19.1029916 7.18386555,19.6616471 6.16820168,19.6616471 L6.16820168,19.6616471 Z M4.42890756,4.72779832 C4.42890756,4.46036975 4.48094118,4.41095798 4.74453782,4.41095798 L5.8434958,4.41095798 C6.84363025,4.41095798 7.26292437,5.16161345 7.26292437,7.10057143 C7.26292437,9.25915966 6.67744538,9.60484034 5.8434958,9.60484034 L4.74453782,9.60484034 C4.48094118,9.60484034 4.42890756,9.55058824 4.42890756,9.28658824 L4.42890756,4.72779832 L4.42890756,4.72779832 Z M10.301042,11.5855462 C10.301042,11.5855462 10.1778151,11.5038655 10.1697479,11.3711597 C10.1697479,11.2426891 10.3256471,11.1168403 10.3256471,11.1168403 C11.4010084,9.97391597 11.6662185,8.82957983 11.6662185,7.68665546 L11.6662185,4.94097479 C11.6297143,1.59630252 10.5035294,0.188369748 6.81236975,0.188369748 L0.485848739,0.188369748 C0.217008403,0.188369748 0,0.404168067 0,0.674218487 L0,23.3943529 C0,23.663395 0.217008403,23.8804034 0.485848739,23.8804034 L7.13687395,23.8804034 C10.6077983,23.8804034 11.9530084,21.4007395 11.9530084,17.9328403 L11.9530084,15.988437 C11.9530084,13.6830252 11.6063193,12.5417143 10.301042,11.5855462 L10.301042,11.5855462 Z" id="Fill-11" sketch:type="MSShapeGroup"></path>
                <path d="M29.4701849,7.13828571 C29.4951933,9.52436975 29.1065546,10.0804034 28.0896807,10.0804034 L26.6984874,10.0804034 C26.4298487,10.0804034 26.3713613,10.0243361 26.3713613,9.7554958 L26.3713613,4.7342521 C26.3713613,4.46944538 26.4298487,4.41095798 26.6984874,4.41095798 L28.0896807,4.41095798 C29.1676639,4.41095798 29.4508235,5.34453782 29.4701849,7.13828571 L29.4701849,7.13828571 Z M34.8397311,23.4280336 L31.0249412,14.0676303 L31.0729412,14.0704538 C31.0729412,14.0704538 31.4353613,13.9260504 31.4353613,13.9232269 C32.5992605,13.3298824 33.792605,12.0659496 33.792605,9.63206723 L33.792605,5.22615126 C33.792605,1.01445378 31.3286723,0.188369748 28.2869244,0.188369748 L22.4137815,0.188369748 C22.142521,0.188369748 21.9243025,0.405378151 21.9243025,0.670386555 L21.9243025,23.3943529 C21.9243025,23.663395 22.142521,23.8804034 22.4137815,23.8804034 L25.8857143,23.8804034 C26.1545546,23.8804034 26.3713613,23.663395 26.3713613,23.3943529 L26.3713613,14.4703866 C26.3713613,14.2092101 26.4425546,14.2092101 26.5258487,14.453042 L30.0873277,23.4280336 C30.1702185,23.6736807 30.4547899,23.8804034 30.7185882,23.8804034 L34.5243025,23.8804034 C34.781042,23.8804034 34.9268571,23.6791261 34.8397311,23.4280336 L34.8397311,23.4280336 Z" id="Fill-13" sketch:type="MSShapeGroup"></path>
                <path d="M127.884908,23.8804034 C120.993277,23.8804034 120.132303,18.9198655 120.132303,11.9947563 C120.132303,5.07206723 120.993277,0.188369748 127.884908,0.188369748 L129.446319,0.188369748 C129.713748,0.188369748 129.938622,0.383193277 129.938622,0.646991597 L129.941042,4.15240336 C129.941042,4.41862185 129.721613,4.63421849 129.456605,4.63421849 L127.884908,4.63421849 C125.171496,4.63421849 124.723765,5.89915966 124.723765,11.9947563 C124.723765,18.125042 125.171496,19.4030924 127.884908,19.4030924 L129.452571,19.405916 L129.456605,19.405916 C129.721613,19.405916 129.941042,19.6229244 129.941042,19.8913613 L129.941042,23.3943529 C129.941042,23.663395 129.721613,23.8804034 129.456605,23.8804034 L127.884908,23.8804034" id="Fill-14" sketch:type="MSShapeGroup"></path>
                <path d="M111.26642,19.4369748 C113.98084,19.4369748 114.034084,18.1121345 114.034084,11.9866891 C114.034084,5.8914958 113.98084,4.39159664 111.26642,4.39159664 C108.555227,4.39159664 108.498555,5.8914958 108.498555,11.9866891 C108.498555,18.1121345 108.555227,19.4369748 111.26642,19.4369748 L111.26642,19.4369748 Z M111.26642,0.188369748 C118.159462,0.188369748 118.630588,5.06278992 118.630588,11.9866891 C118.630588,18.9097815 118.159462,23.8804034 111.26642,23.8804034 C104.37358,23.8804034 103.903462,18.9097815 103.903462,11.9866891 C103.903462,5.06278992 104.37358,0.188369748 111.26642,0.188369748 L111.26642,0.188369748 Z" id="Fill-15" sketch:type="MSShapeGroup"></path>
                <path d="M145.061042,11.1690756 C145.061042,10.9500504 144.934185,10.8346891 144.657681,10.8346891 L144.138555,10.8346891 C144.104067,10.8346891 144.09237,10.8461849 144.09237,10.8808739 L144.09237,11.4687731 C144.09237,11.4917647 144.104067,11.514958 144.138555,11.514958 L144.657681,11.514958 C144.934185,11.514958 145.061042,11.3881008 145.061042,11.1690756 L145.061042,11.1690756 Z M143.735193,12.8867899 C143.689008,12.8867899 143.654521,12.8637983 143.654521,12.8061176 L143.654521,10.5234958 C143.654521,10.4658151 143.689008,10.4428235 143.735193,10.4428235 L144.657681,10.4428235 C145.187899,10.4428235 145.499092,10.7078319 145.499092,11.1690756 C145.499092,11.5034622 145.314756,11.745479 145.015059,11.8491429 L145.51079,12.8061176 C145.53358,12.8521008 145.51079,12.8867899 145.464403,12.8867899 L145.141916,12.8867899 C145.095529,12.8867899 145.061042,12.8637983 145.037849,12.8061176 L144.577008,11.9068235 L144.138555,11.9068235 C144.104067,11.9068235 144.09237,11.9183193 144.09237,11.9530084 L144.09237,12.8061176 C144.09237,12.8637983 144.058084,12.8867899 144.011697,12.8867899 L143.735193,12.8867899 L143.735193,12.8867899 Z M146.317714,11.6763025 C146.317714,10.6271597 145.545277,9.85472269 144.507429,9.85472269 C143.470387,9.85472269 142.697546,10.6271597 142.697546,11.6763025 C142.697546,12.7254454 143.470387,13.5093782 144.507429,13.5093782 C145.545277,13.5093782 146.317714,12.7254454 146.317714,11.6763025 L146.317714,11.6763025 Z M142.305681,11.6763025 C142.305681,10.4311261 143.262655,9.47435294 144.507429,9.47435294 C145.764504,9.47435294 146.709378,10.4311261 146.709378,11.6763025 C146.709378,12.9327731 145.764504,13.8897479 144.507429,13.8897479 C143.262655,13.8897479 142.305681,12.9327731 142.305681,11.6763025 L142.305681,11.6763025 Z" id="Fill-16" sketch:type="MSShapeGroup"></path>
            </g>
        </g>
    </g>
</svg>